<?xml version="1.0" encoding="UTF-8"?>
<svg id="Layer_2" data-name="Layer 2" xmlns="http://www.w3.org/2000/svg" viewBox="0 0 108.11 47.04">
  <defs>
    <style>
      .cls-1 {
        fill: #fff;
      }

      .cls-2 {
        fill: #ffce00;
      }
    </style>
  </defs>
  <g id="Layer_1-2" data-name="Layer 1">
    <g>
      <path class="cls-2" d="M60.97,31.11c-.18,0-.37-.05-.53-.15-.47-.29-.61-.91-.32-1.38.13-.21.26-.42.38-.63-.7.31-1.34.6-1.54.71l-.49.27-.56-.27c-.64-.36-.69-1.09-.75-2.54-.31.31-.61.62-.84.86-.89.91-1.19,1.21-1.38,1.35l-.44.32-.57-.18c-.63-.24-.76-.86-.96-1.79,0-.04-.02-.08-.03-.13-.7.71-1.7,1.82-2.54,2.81-.36.42-.99.47-1.41.11-.42-.36-.47-.99-.11-1.41,3.41-4,3.96-4.08,4.32-4.12.99-.13,1.36.76,1.6,1.73.03-.03.06-.06.09-.09,1.36-1.39,2.04-2.07,2.4-2.3l.49-.3.59.26c.69.36.72,1.15.79,2.7,0,.12.01.26.02.4.95-.42,2.15-.93,2.68-1.12.58-.2,1.04.04,1.27.33.41.51.55,1.1-1.32,4.08-.19.3-.52.47-.85.47Z"/>
      <path class="cls-1" d="M108.11,47.04h-3c0-9.45-4.4-27.31-21.04-27.31-4.06,0-7.01,1.03-9.01,3.14-4.04,4.27-3.58,12.49-3.21,19.09.1,1.82.2,3.54.2,5.08h-3c0-1.45-.09-3.13-.19-4.91-.4-7.18-.89-16.11,4.03-21.32,2.56-2.71,6.33-4.08,11.19-4.08,19.01,0,24.04,19.83,24.04,30.31Z"/>
      <circle class="cls-2" cx="57.68" cy="37.1" r="1.3"/>
      <circle class="cls-2" cx="53.36" cy="37.1" r="1.3"/>
      <circle class="cls-2" cx="77.78" cy="28.32" r="1.84"/>
      <circle class="cls-2" cx="83.58" cy="27.62" r="1.84"/>
      <path class="cls-2" d="M105.47,25.22c-.08,0-.15,0-.23-.02-.82-.13-1.38-.89-1.25-1.71.83-5.33.69-8.42-.41-9.2-.92-.65-1.66-.86-3.3-.91-1.88-.06-2.79-1.81-3.6-3.35-.45-.86-1.13-2.15-1.64-2.2-.32-.03-.96.6-1.47,1.11-.92.94-2.18,2.21-4.04,2.09-2.18-.15-3.39-2.07-4.36-3.61-.29-.46-.7-1.12-.99-1.42-.27.36-.63,1.16-.85,1.67-.67,1.5-1.5,3.36-3.33,3.41-1.46,0-2.52-.78-3.39-1.43-.68-.52-1.27-.96-1.91-.97h0c-.52,0-2.35.78-4.51,10.55-.18.81-.98,1.32-1.79,1.14-.81-.18-1.32-.98-1.14-1.79,2.02-9.15,4.18-12.9,7.42-12.9h.08c1.62.03,2.75.89,3.66,1.58.51.39.96.73,1.33.81.25-.31.61-1.11.83-1.61.69-1.55,1.55-3.49,3.47-3.56,1.73-.03,2.77,1.53,3.66,2.93.61.97,1.37,2.17,2.03,2.22.48.04,1.06-.57,1.69-1.21.95-.97,2.15-2.18,3.91-1.99,2.11.21,3.15,2.2,3.99,3.8.31.6.84,1.61,1.13,1.76,1.82.04,3.24.29,4.85,1.43,2.28,1.62,2.74,5.01,1.64,12.1-.12.74-.75,1.27-1.48,1.27Z"/>
      <path class="cls-1" d="M64.6,46.62h-2c0-7.1-.85-14.37-7.13-14.37s-7.13,7.26-7.13,14.37h-2c0-4.9,0-16.37,9.13-16.37s9.13,11.47,9.13,16.37Z"/>
      <path class="cls-1" d="M42.44,46.62h-3c0-1.73.14-3.68.29-5.75.47-6.42,1.04-14.41-2.77-18.51-1.91-2.05-4.78-3.05-8.79-3.05-17.8,0-21.8,20.22-21.8,27.31h-3c0-11.72,6.73-30.31,24.8-30.31,4.81,0,8.51,1.35,10.98,4.01,4.7,5.05,4.07,13.77,3.56,20.77-.15,2.01-.28,3.91-.28,5.53Z"/>
      <circle class="cls-2" cx="27.15" cy="27.08" r="1.84"/>
      <circle class="cls-2" cx="33.31" cy="29.93" r="1.84"/>
      <path class="cls-1" d="M55.52,40.74c-.63,0-1.18-.23-1.49-.45-.23-.16-.28-.47-.12-.7.16-.23.47-.28.69-.13.1.07,1.03.65,1.94-.13.21-.18.53-.16.71.05.18.21.16.53-.05.71-.55.48-1.14.64-1.67.64Z"/>
      <path class="cls-2" d="M2.61,25.22c-.55,0-1.08-.3-1.34-.83-1.03-2.05-1.78-5.17-.82-7.81.56-1.53,1.63-2.68,3.1-3.32.3-.13.61-.25.94-.34-.55-3.34,1.38-6.71,4.78-8.18,2.33-1.01,4.99-.97,7.22.08.81-1.78,2.32-3.25,4.22-4.07C24.01-.69,27.83,0,30.2,2.4c1.85-.62,5.4-1.39,7.88.6,1.9,1.53,3.09,4.4,2.88,6.35,1.79.43,4.03,1.95,5,4.02.8,1.71.63,3.58-.46,5.27-.45.7-1.38.89-2.07.44-.7-.45-.89-1.38-.44-2.07.54-.84.63-1.59.26-2.37-.61-1.31-2.33-2.31-3.25-2.42-.76-.09-1.76-.61-2.13-1.52-.23-.56-.19-1.18.12-1.68.05-.6-.43-2.58-1.79-3.68-1.25-1.01-3.63-.63-5.45.05-.88.33-1.84.08-2.46-.65-1.46-1.7-4.14-2.22-6.37-1.25-1.34.58-2.34,1.59-2.8,2.84-.25.67-.79,1.2-1.48,1.46-.71.27-1.49.22-2.14-.13-1.51-.82-3.39-.88-5.02-.17-2.24.97-3.48,3.2-2.94,5.29.15.6.06,1.23-.26,1.77-.34.57-.92,1-1.59,1.16-.32.08-.63.18-.92.31-.72.31-1.2.83-1.48,1.59-.51,1.41-.24,3.6.69,5.44.37.74.07,1.64-.67,2.01-.22.11-.44.16-.67.16ZM4.94,12.79h0,0ZM38.11,8.83s0,0,0,0c0,0,0,0,0,0Z"/>
    </g>
  </g>
</svg>